<svg width="1200" height="1400" viewBox="0 0 1200 1400" fill="none" xmlns="http://www.w3.org/2000/svg">
  <rect width="1200" height="1400" rx="48" fill="#08101D"/>
  <rect x="40" y="40" width="1120" height="1320" rx="36" fill="url(#bg)"/>
  <g opacity="0.14">
    <path d="M120 220H1080" stroke="#E2E8F0" stroke-width="2"/>
    <path d="M120 500H1080" stroke="#E2E8F0" stroke-width="2"/>
    <path d="M120 780H1080" stroke="#E2E8F0" stroke-width="2"/>
    <path d="M120 1060H1080" stroke="#E2E8F0" stroke-width="2"/>
    <path d="M300 120V1260" stroke="#E2E8F0" stroke-width="2"/>
    <path d="M600 120V1260" stroke="#E2E8F0" stroke-width="2"/>
    <path d="M900 120V1260" stroke="#E2E8F0" stroke-width="2"/>
  </g>

  <g filter="url(#blur)">
    <circle cx="930" cy="200" r="170" fill="#2563EB" fill-opacity="0.30"/>
    <circle cx="260" cy="1140" r="210" fill="#06B6D4" fill-opacity="0.22"/>
  </g>

  <text x="118" y="132" fill="#A5F3FC" font-family="Arial, sans-serif" font-size="30" letter-spacing="7">DATA ARCHITECTURE</text>
  <text x="118" y="190" fill="#F8FAFC" font-family="Arial, sans-serif" font-size="68" font-weight="700">Modernization Flow</text>
  <text x="118" y="238" fill="#94A3B8" font-family="Arial, sans-serif" font-size="28">From legacy sources to cloud-native delivery.</text>

  <g>
    <rect x="120" y="300" width="280" height="150" rx="28" fill="#0F172A" stroke="#67E8F9" stroke-width="3"/>
    <text x="156" y="356" fill="#F8FAFC" font-family="Arial, sans-serif" font-size="34" font-weight="700">Sources</text>
    <text x="156" y="404" fill="#CBD5E1" font-family="Arial, sans-serif" font-size="24">Hadoop · SQL Server</text>
    <text x="156" y="438" fill="#CBD5E1" font-family="Arial, sans-serif" font-size="24">BigQuery · APIs · Kafka</text>
  </g>

  <g>
    <rect x="458" y="300" width="286" height="150" rx="28" fill="#0F172A" stroke="#22D3EE" stroke-width="3"/>
    <text x="494" y="356" fill="#F8FAFC" font-family="Arial, sans-serif" font-size="34" font-weight="700">Ingestion</text>
    <text x="494" y="404" fill="#CBD5E1" font-family="Arial, sans-serif" font-size="24">Glue · Spark · DLT</text>
    <text x="494" y="438" fill="#CBD5E1" font-family="Arial, sans-serif" font-size="24">Batch + Real time</text>
  </g>

  <g>
    <rect x="802" y="300" width="278" height="150" rx="28" fill="#0F172A" stroke="#38BDF8" stroke-width="3"/>
    <text x="838" y="356" fill="#F8FAFC" font-family="Arial, sans-serif" font-size="34" font-weight="700">Quality</text>
    <text x="838" y="404" fill="#CBD5E1" font-family="Arial, sans-serif" font-size="24">Validation · QA</text>
    <text x="838" y="438" fill="#CBD5E1" font-family="Arial, sans-serif" font-size="24">Schema consistency</text>
  </g>

  <g>
    <rect x="180" y="640" width="394" height="180" rx="34" fill="#0F172A" stroke="#22D3EE" stroke-width="4"/>
    <text x="226" y="706" fill="#F8FAFC" font-family="Arial, sans-serif" font-size="42" font-weight="700">Lakehouse Core</text>
    <text x="226" y="760" fill="#CBD5E1" font-family="Arial, sans-serif" font-size="28">Databricks · Delta Lake</text>
    <text x="226" y="802" fill="#CBD5E1" font-family="Arial, sans-serif" font-size="28">Standards · Zones · Models</text>
  </g>

  <g>
    <rect x="628" y="640" width="392" height="180" rx="34" fill="#0F172A" stroke="#67E8F9" stroke-width="4"/>
    <text x="674" y="706" fill="#F8FAFC" font-family="Arial, sans-serif" font-size="42" font-weight="700">Serving Layer</text>
    <text x="674" y="760" fill="#CBD5E1" font-family="Arial, sans-serif" font-size="28">Snowflake · Warehousing</text>
    <text x="674" y="802" fill="#CBD5E1" font-family="Arial, sans-serif" font-size="28">Analytics · BI · Consumption</text>
  </g>

  <g>
    <rect x="270" y="1060" width="660" height="180" rx="36" fill="#0F172A" stroke="#38BDF8" stroke-width="4"/>
    <text x="322" y="1128" fill="#F8FAFC" font-family="Arial, sans-serif" font-size="44" font-weight="700">Delivery & Modernization</text>
    <text x="322" y="1184" fill="#CBD5E1" font-family="Arial, sans-serif" font-size="28">CI/CD · Orchestration · Migration execution</text>
  </g>

  <path d="M400 376H458" stroke="url(#line1)" stroke-width="8" stroke-linecap="round"/>
  <path d="M744 376H802" stroke="url(#line1)" stroke-width="8" stroke-linecap="round"/>
  <path d="M601 450V640" stroke="url(#line2)" stroke-width="8" stroke-linecap="round"/>
  <path d="M574 730H628" stroke="url(#line1)" stroke-width="8" stroke-linecap="round"/>
  <path d="M377 820V940C377 1007 430 1060 497 1060H558" stroke="url(#line3)" stroke-width="8" stroke-linecap="round"/>
  <path d="M824 820V940C824 1007 771 1060 704 1060H642" stroke="url(#line3)" stroke-width="8" stroke-linecap="round"/>

  <circle cx="400" cy="376" r="12" fill="#67E8F9"/>
  <circle cx="458" cy="376" r="12" fill="#22D3EE"/>
  <circle cx="744" cy="376" r="12" fill="#22D3EE"/>
  <circle cx="802" cy="376" r="12" fill="#38BDF8"/>
  <circle cx="601" cy="640" r="12" fill="#67E8F9"/>
  <circle cx="574" cy="730" r="12" fill="#22D3EE"/>
  <circle cx="628" cy="730" r="12" fill="#67E8F9"/>
  <circle cx="558" cy="1060" r="12" fill="#38BDF8"/>
  <circle cx="642" cy="1060" r="12" fill="#67E8F9"/>

  <defs>
    <filter id="blur" x="-170" y="-140" width="1470" height="1620" filterUnits="userSpaceOnUse" color-interpolation-filters="sRGB">
      <feFlood flood-opacity="0" result="BackgroundImageFix"/>
      <feBlend mode="normal" in="SourceGraphic" in2="BackgroundImageFix" result="shape"/>
      <feGaussianBlur stdDeviation="90" result="effect1_foregroundBlur"/>
    </filter>
    <linearGradient id="bg" x1="600" y1="40" x2="600" y2="1360" gradientUnits="userSpaceOnUse">
      <stop stop-color="#0A1324"/>
      <stop offset="1" stop-color="#09111E"/>
    </linearGradient>
    <linearGradient id="line1" x1="400" y1="376" x2="802" y2="376" gradientUnits="userSpaceOnUse">
      <stop stop-color="#22D3EE"/>
      <stop offset="1" stop-color="#2563EB"/>
    </linearGradient>
    <linearGradient id="line2" x1="601.5" y1="450" x2="601.5" y2="640" gradientUnits="userSpaceOnUse">
      <stop stop-color="#67E8F9"/>
      <stop offset="1" stop-color="#22D3EE"/>
    </linearGradient>
    <linearGradient id="line3" x1="377" y1="820" x2="824" y2="1060" gradientUnits="userSpaceOnUse">
      <stop stop-color="#22D3EE"/>
      <stop offset="1" stop-color="#2563EB"/>
    </linearGradient>
  </defs>
</svg>
